<svg id="Laag_1" data-name="Laag 1" xmlns="http://www.w3.org/2000/svg" viewBox="0 0 118.07 37.29">
  <g>
    <path d="M5.9,7.8H7c-.1.7-.1.6.5.6a14.92,14.92,0,0,1,2.1.2,1.34,1.34,0,0,1,.7.6c.2.2.1.3-.2.3a1.27,1.27,0,0,1-.6-.1,3.56,3.56,0,0,0-2.7-.2c-.4.2-.9.3-1.3.5-.2,0-.3-.1-.5-.1.1-.1.1-.3.2-.4.4-.2.8-.4,1.3-.6-1.1-.2-2.9.9-2.8,2.1.2-.1.3-.3.5-.3a.9.9,0,0,1,.5-.1.6.6,0,0,1-.1.4V11H5c.5-.3,1-.5,1.4-.8A2.35,2.35,0,0,1,8,9.7a1.25,1.25,0,0,1,1.1.6c.2.3.1.5-.2.6s-.4.1-.5.2c-.3.1-.6.2-.6.5,0,.1-.1.2-.2.3-.5.5-1,1.1-1.5,1.6l-.1.1v.3a.37.37,0,0,0,.3-.1c.3-.4.7-.7,1-1.1l.3-.3a.1.1,0,0,1,.1.1c0,.1-.1.3-.1.4a5.18,5.18,0,0,1-1.4,2.2.6.6,0,0,0-.1.4.6.6,0,0,0,.4-.1,4.07,4.07,0,0,0,1.4-2c0-.1.1-.2.2-.4h.1c.1.2.1.4.2.6a3.4,3.4,0,0,1-.3,2,27.51,27.51,0,0,1-1.4,3c-.2.4-.4.7-.2,1.1.2.6,0,.8-.5,1.1A7,7,0,0,0,5,20c-.4-.2-.7-.5-1.1-.7a1.35,1.35,0,0,0-1.8,1.2,4,4,0,0,0,.6,2.8c.5.8,1,1.7,1.5,2.6.7,1.1,1.1,1.2,2.2.4.3-.2.5-.4.8-.6.3.3.1.6,0,.8a5.55,5.55,0,0,1-.6.8c-.5.5-.6.7-.5,1a20.47,20.47,0,0,1,1.1,4.9,1.78,1.78,0,0,0,1.1,1.5,13.84,13.84,0,0,0,3.9,1.8c.8.2,1.6.6,2.4.8s1.3.3,2,.5a.35.35,0,0,1,.2.1V38c-.2,0-.4.2-.5.1a15.72,15.72,0,0,1-2.3-.4,18.45,18.45,0,0,1-6.1-2.6c-.6-.4-1.1-.9-1.6-1.3,0,.1-.1.2-.2.4,0,.5-.1.9-.1,1.3a.84.84,0,0,1-1.2.7,1.38,1.38,0,0,0,.3-.4,3,3,0,0,0,.5-1.6A1.22,1.22,0,0,1,6.2,33c.1,0,.2-.2.2-.3a15.69,15.69,0,0,0-.9-4.3c0-.1-.2-.2-.3-.3s-.6-.2-.7-.4a11.86,11.86,0,0,1-3-4.6,5,5,0,0,1-.2-2.7,3.7,3.7,0,0,1,.5-1.1c.3-.3.2-.6.2-1-.3-1.1-.6-2.1-.8-3.2S.9,12.9.7,11.8a1.27,1.27,0,0,1,.1-.6A4.14,4.14,0,0,0,1,9.6a1.14,1.14,0,0,1,.3-.8,2.58,2.58,0,0,0,1-1.9,2.19,2.19,0,0,1,.8-1.4A6.27,6.27,0,0,1,6.3,3.8,8.65,8.65,0,0,0,8,3.1a9.82,9.82,0,0,1,3.2-1.3,4.42,4.42,0,0,0,1.5-.5A3.86,3.86,0,0,1,14.8,1,6.47,6.47,0,0,0,17.2.9a4.07,4.07,0,0,1,2.2.2,2.26,2.26,0,0,1,1.4,2.1,18,18,0,0,1-.2,2.2.75.75,0,0,0,.1.5A4.32,4.32,0,0,1,22.4,8a10.88,10.88,0,0,1,.7,3,2.77,2.77,0,0,0,.1.9,2,2,0,0,0,.4.8,3.66,3.66,0,0,1,1.2,3.4l-.3,1.5a3.12,3.12,0,0,0,.3,2.5c.2.4.5.9.7,1.3a4.42,4.42,0,0,1,.2,2,53.35,53.35,0,0,1-2,8.8c-.4,1.4-.8,2.9-1.2,4.3-.1.3-.1.7-.6.8v-1a42.72,42.72,0,0,1,1.8-6.8,22.88,22.88,0,0,0,1.1-5.8,7.44,7.44,0,0,0-.2-2.6,2.73,2.73,0,0,0-.6-1.2,2.5,2.5,0,0,1-.3-2.5c.1-.4.3-.8.4-1.2a1,1,0,0,0-.8-1.4,3,3,0,0,0-3,.7c-.4.3-.5.3-.7-.2,0-.2-.1-.3-.1-.5,0-.4-.1-.9.5-1.1.3-.1.5-.4.8-.5a2.19,2.19,0,0,1,1.7-.7v-.2c-.3-1.3-.6-2.6-1-3.9a2.26,2.26,0,0,0-2.1-1.5.37.37,0,0,0-.3.1c0,.1.1.2.1.3.1.4,0,.6-.4.7-.2.1-.5.2-.6.4-.5.6-.7.6-1.2.1a1.44,1.44,0,0,0-1.4-.3c-.2-.7-.5-1-1.1-.9,0,.1,0,.1.1.2.4.2.4.3-.2.5a1.51,1.51,0,0,1-1.7-.3A3.5,3.5,0,0,0,11,6.8a3.4,3.4,0,0,1-1-.1,4.46,4.46,0,0,1,3.4.3c.1-.4-.1-.6-1.1-.8,1.1-.5,2.2,0,3.3.1a3.63,3.63,0,0,0-1.7-.7c1-.4,2,0,2.9-.1a12.49,12.49,0,0,0-1.2-.8,2,2,0,0,1,.8.1c.5.2.9.5,1.4.7a1.48,1.48,0,0,0,.7.1,2.27,2.27,0,0,0-1.6-1.1,1.72,1.72,0,0,1,1.9.5c.1,0,.2.1.3.1,0-.2.1-.4,0-.5s-.4-.3-.6-.6a1.7,1.7,0,0,1,.7.1,5.74,5.74,0,0,1,.7.4,1,1,0,0,0-.6-1.1.76.76,0,0,0-.5-.2,24.37,24.37,0,0,0-2.7.1c-.1,0-.2.1-.3.2a8.52,8.52,0,0,0,2.3.4,2,2,0,0,1-.7.1c-1,0-2.1,0-3.1.1H12.8c-.1,0-.2.1-.4.1v.1c.7.1,1.3.3,2,.4v.1c-.5,0-1-.1-1.5-.1a2.06,2.06,0,0,0-1.5.3,6.47,6.47,0,0,0,2.4.1,7,7,0,0,1-3.5.6A5.82,5.82,0,0,1,8.4,6c-.1.1-.2.1-.4.2v.1c.4,0,.9.1,1.3.1v.2a12.23,12.23,0,0,0-1.7.3,5.31,5.31,0,0,0-1.7.8Zm1.5,3.4c-.2,0-.5.2-.5.1-.4-.3-.6,0-.9.1s-.6.3-.8.2c-.5-.2-.9.1-1.3.3-.1.1-.1.2-.2.3.1,0,.3.1.4,0s.4-.3.6,0a1.33,1.33,0,0,1-.3.5,2.25,2.25,0,0,1-.5.5,1,1,0,0,0-.4.5c-.1.1,0,.2,0,.3h.3c.1,0,.1-.1.2-.1a1.37,1.37,0,0,1,1.1-.4c.1,0,.2-.1.3-.1.7-.6,1.3-1.3,2-1.9A.19.19,0,0,1,7.4,11.2Zm-.2,4.6a.1.1,0,0,1-.1-.1A11.41,11.41,0,0,0,6,16.8c-.1.2-.1.5-.2.7s.1.2.1.3c.1-.1.2-.1.3-.2.3-.5.7-1,1-1.5Z" transform="translate(-0.7 -0.84)"/>
    <path d="M17.1,16.1c-.1.1-.3.4-.4.4a3.26,3.26,0,0,0-1.9.8,3.6,3.6,0,0,1-2.2.7,5.08,5.08,0,0,0-1.7.3c-.3.1-.5.4-.8.6-.1.1-.2.1-.2.2-.1-.1-.2-.2-.1-.3a2.44,2.44,0,0,1,1.7-2.2l1.2-.3a4.53,4.53,0,0,0,2.1-1,8.79,8.79,0,0,1,1-.6.61.61,0,0,1,.9.4A3,3,0,0,1,17.1,16.1Z" transform="translate(-0.7 -0.84)"/>
    <path d="M3,23.2c-.1-.1-.2-.2-.2-.3A10.79,10.79,0,0,1,2.5,21c0-.7.5-1,1.1-.7a5.46,5.46,0,0,1,2.1,1.9.3.3,0,0,1,0,.4c-.1.1-.2.1-.4.1H5.2a.76.76,0,0,0-1,.1.9.9,0,0,0,0,1.1,5.58,5.58,0,0,0,.5.8c.1.1.4.1.6.1a1.47,1.47,0,0,1-.5-1.6c0-.1.2-.2.3-.3a.1.1,0,0,1,.1.1c0,.1-.1.3-.1.4a1,1,0,0,0,.4.9.52.52,0,0,1,.1.8.54.54,0,0,1-.8.2,2.7,2.7,0,0,1-.7-.8,4.17,4.17,0,0,1-.6-2.7v-.4c0-.1-.1-.2-.2-.3-.1.1-.3.2-.3.3v1.5c0,.1.1.2,0,.3Z" transform="translate(-0.7 -0.84)"/>
    <path d="M20.2,20.2c-.4.6,0,1.1,0,1.7a.9.9,0,0,1-.6-.9,4.5,4.5,0,0,1,.4-2.8c.4-.7,2-1.5,2.9-.9.1,0,.1.1.3.2H22.1l.7.7-.1.1a2.19,2.19,0,0,1-.5-.3c-.5-.3-.8-.4-1.2,0,.6.1.7.6.7,1.1a1,1,0,0,1-.9.8c.5.4,1,.2,1.7-.7.1.3-.1.6-.4.9A1.3,1.3,0,0,1,20.2,20.2Z" transform="translate(-0.7 -0.84)"/>
    <path d="M14.8,26.8a4.17,4.17,0,0,0-.2.6h.8a3.09,3.09,0,0,1,1.8.5,1.7,1.7,0,0,0,1.8.2c.5-.2.9-.4,1.4,0,.2.1.4,0,.4-.2a.9.9,0,0,1,.1-.5c.4.3.5,1.2.2,1.4-.1.1-.3,0-.4,0s-.3-.2-.4-.2a11,11,0,0,1-1.6.3,4.48,4.48,0,0,1-1.1-.1l-2.4-.9c-.1,0-.4,0-.5.1s-.1.2-.2.3a.76.76,0,0,1-.4.2c-.1,0-.2-.3-.2-.4a3.7,3.7,0,0,1,.5-1.1c.1-.1.3-.1.4-.2Z" transform="translate(-0.7 -0.84)"/>
    <path d="M15.7,34.6c.3.3.6.5.9.8a3.24,3.24,0,0,0,2.3.8,1.92,1.92,0,0,0,1.5-1.1c.1-.1.2-.3.3-.4h.1c0,.2.1.3,0,.5A2.62,2.62,0,0,1,19.2,37a3.25,3.25,0,0,1-3.7-2C15.6,34.8,15.6,34.7,15.7,34.6Z" transform="translate(-0.7 -0.84)"/>
    <path d="M16.1,24.7c-.1.1-.2.1-.4.2a6.31,6.31,0,0,0-3.4,2.4,1.7,1.7,0,0,0-.2,1.8.45.45,0,0,1,0,.5,1.38,1.38,0,0,1-.6-1.1,8.6,8.6,0,0,1,.1-1.6,1.07,1.07,0,0,1,.7-.9c.8-.4,1.7-.9,2.5-1.3a1.67,1.67,0,0,1,1.2-.1C16.1,24.6,16.1,24.6,16.1,24.7Z" transform="translate(-0.7 -0.84)"/>
    <path d="M13.1,35c-.1,0-.1,0-.1-.1a11.57,11.57,0,0,0-1.4-2.4,8.44,8.44,0,0,1-1.2-5.8.76.76,0,0,1,.2-.5h.1v.6a8.17,8.17,0,0,0,.5,3.8,7.81,7.81,0,0,0,1.1,2,4.76,4.76,0,0,1,.8,1.8C13.2,34.7,13.1,34.8,13.1,35Z" transform="translate(-0.7 -0.84)"/>
    <path d="M7.5,28.6c.5,0,.5.3.6.5a23.11,23.11,0,0,0,2.8,5.4,5.55,5.55,0,0,0,.6.8.1.1,0,0,1-.1.1c-.1-.1-.3-.1-.4-.2a8.32,8.32,0,0,1-1.9-2.6c-.5-.9-.9-1.9-1.3-2.8A5.27,5.27,0,0,1,7.5,28.6Z" transform="translate(-0.7 -0.84)"/>
    <path d="M16.1,29.7a.75.75,0,0,1,.5.1,4,4,0,0,0,3.4.1h.3v.3a2.16,2.16,0,0,1-2.7.8A2.83,2.83,0,0,1,16.1,29.7Z" transform="translate(-0.7 -0.84)"/>
    <path d="M21.6,30a4.87,4.87,0,0,0,.1-1.2,12.05,12.05,0,0,0,0-1.9c0-.3-.2-.5-.3-.8a1.09,1.09,0,0,1-.1-.5,1.55,1.55,0,0,1,1.3,1.7c-.2.9-.6,1.8-.9,2.7Z" transform="translate(-0.7 -0.84)"/>
    <path d="M13.2,12.7c.2-.1.4-.3.6-.4a5.09,5.09,0,0,1,3-.6,3.08,3.08,0,0,0,1.3-.3c.6-.2,1.3-.5,1.9-.7h.3v.1c-1,.4-2,.9-3,1.2a3.81,3.81,0,0,1-1.5.1,4.65,4.65,0,0,0-2.3.6c-.1,0-.1.1-.2.1S13.3,12.7,13.2,12.7Z" transform="translate(-0.7 -0.84)"/>
    <path d="M11.8,20.2c1.3.9,2.2.4,3.1-.3.2-.1.3-.3.4-.4.4-.4.5-.4.8.1l.3.3.2.2a.22.22,0,0,1-.2.2c-.1,0-.3,0-.3-.1-.4-.4-.4-.4-.9,0a3.24,3.24,0,0,1-2.3.8A1.08,1.08,0,0,1,11.8,20.2Z" transform="translate(-0.7 -0.84)"/>
    <path d="M20.8,11.7c-.2.1-.3.3-.5.4-.6.3-1.1.6-1.7.9a2.15,2.15,0,0,1-1.1.2,6.08,6.08,0,0,0-3.5.6,11.73,11.73,0,0,1-1.1.5.1.1,0,0,0-.1-.1,4.35,4.35,0,0,1,.7-.4,5.82,5.82,0,0,1,3.8-.9,4.28,4.28,0,0,0,2.2-.6,10.91,10.91,0,0,0,1.1-.6C20.8,11.6,20.8,11.7,20.8,11.7Z" transform="translate(-0.7 -0.84)"/>
    <path d="M20.1,32.6c-.2,0-.3-.1-.4-.1a5,5,0,0,0-2.1.1c-.2,0-.4.1-.5,0s-.2-.1-.3-.2l.3-.3a3.91,3.91,0,0,1,3-.1l.3.3Z" transform="translate(-0.7 -0.84)"/>
    <path d="M7.5,7.6a4.19,4.19,0,0,1,2.2-.5c.5,0,.9.4,1.2,1-.3,0-.5.1-.7.1A5.1,5.1,0,0,0,7.5,7.6Z" transform="translate(-0.7 -0.84)"/>
    <path d="M13.9,11.3l.3-.3a2.88,2.88,0,0,1,2-.5,4.77,4.77,0,0,0,2-.4l1-.3a.6.6,0,0,1,.4.1,6.47,6.47,0,0,0-1.3.4,4.14,4.14,0,0,1-1.9.5,3.4,3.4,0,0,0-1,.1A8.33,8.33,0,0,0,13.9,11.3Z" transform="translate(-0.7 -0.84)"/>
    <path d="M19.3,25.7a4.88,4.88,0,0,1,.7-.3,1.68,1.68,0,0,0,1-1.6.6.6,0,0,0-.1-.4,1.45,1.45,0,0,1,.4,1.6C21,25.8,20.4,26,19.3,25.7Z" transform="translate(-0.7 -0.84)"/>
    <path d="M17.6,15.3c-.1-.2-.2-.3-.2-.4a1.27,1.27,0,0,0-1.6-.8,6.12,6.12,0,0,0-1.2.5,3.29,3.29,0,0,0-.6.3,4.23,4.23,0,0,1,2.4-1.2c.8,0,1.5.7,1.3,1.4C17.7,15.2,17.7,15.2,17.6,15.3Z" transform="translate(-0.7 -0.84)"/>
    <path d="M17.6,20.9c-.2-1-.5-2-.7-3.1C17.7,18.1,18.1,20.2,17.6,20.9Z" transform="translate(-0.7 -0.84)"/>
    <path d="M15.8,18.5a10.67,10.67,0,0,1-1.9.9,2,2,0,0,1-1.7,0v-.1h.6a2.69,2.69,0,0,0,1.5-.5,5.94,5.94,0,0,1,.8-.4A1.48,1.48,0,0,0,15.8,18.5Z" transform="translate(-0.7 -0.84)"/>
    <path d="M22.9,20.2a1,1,0,0,1-.8,1.1,1,1,0,0,1-1.3-.3C21.6,21,22.4,21,22.9,20.2Z" transform="translate(-0.7 -0.84)"/>
    <path d="M18.5,23.8a3.18,3.18,0,0,0-.9.3c-.2.1-.3.4-.5.7-.2,0-.2-.2-.2-.5s.1-.7.4-.7a4.82,4.82,0,0,1,1.2,0Z" transform="translate(-0.7 -0.84)"/>
    <path d="M13.2,21.5a3.15,3.15,0,0,0,2.4-.9c.1.3.1.4-.2.6A1.93,1.93,0,0,1,13.2,21.5Z" transform="translate(-0.7 -0.84)"/>
    <path d="M17.6,25.3c0-.2,0-.4.2-.5a.63.63,0,0,1,.6,0,3.51,3.51,0,0,1,.8.5.1.1,0,0,1-.1.1A7.08,7.08,0,0,0,17.6,25.3Z" transform="translate(-0.7 -0.84)"/>
    <path d="M8.8,21.3c.1,0,.2-.1.3-.1a7.57,7.57,0,0,1,1.5-.1.35.35,0,0,1,.2.1c-.1.1-.1.2-.2.2a2.77,2.77,0,0,1-1.8,0Z" transform="translate(-0.7 -0.84)"/>
    <path d="M8.9,19.9c.7.2,1.2.4,1.8.6A2,2,0,0,1,9,20.2C8.9,20.2,8.9,20,8.9,19.9Z" transform="translate(-0.7 -0.84)"/>
    <path d="M9.4,22.2a12.13,12.13,0,0,1,1.4-.5c0,.1.1.1.1.2a5.36,5.36,0,0,1-1.1.5C9.7,22.4,9.6,22.3,9.4,22.2Z" transform="translate(-0.7 -0.84)"/>
    <path d="M18.7,16.2l.3.9Q18.4,17,18.7,16.2Z" transform="translate(-0.7 -0.84)"/>
  </g>
  <g>
    <path d="M31.61,23.89a1,1,0,0,1,.34-.73,4.38,4.38,0,0,1,.53-.45,1.45,1.45,0,0,0,.26-.19c.07,1.35,1,2,2.73,2a11.65,11.65,0,0,0,4.82-1.28,6.59,6.59,0,0,0,2.62-1.82,1,1,0,0,0,.22-.48.51.51,0,0,0-.07-.3l-9.21-2.07a1.86,1.86,0,0,1-.78-.37c-.46-.33-.69-.62-.69-.89,0-1,.73-1.95,2.18-2.78a20.21,20.21,0,0,1,6.42-2q.9-.15,1.35-.18a2.1,2.1,0,0,0,.41.08c.19,0,.37.06.57.1.46.1.65.3.57.58q0,.75-2.88,1.2a27.31,27.31,0,0,0-4.65.93A4.21,4.21,0,0,0,35,16a1.38,1.38,0,0,0-.43.95c0,.08.17.16.51.25l1.22.32,1.85.5q2.75.75,6.75,1.91a2.32,2.32,0,0,1,.22.91,3,3,0,0,1-1.38,2.26,13.32,13.32,0,0,1-4.31,2.07,13.64,13.64,0,0,1-3.64.68,6,6,0,0,1-2.15-.39,7.09,7.09,0,0,1-1.53-.78A1,1,0,0,1,31.61,23.89Z" transform="translate(-0.7 -0.84)"/>
    <path d="M49.83,23.7l.05-3.55a5.45,5.45,0,0,0-.16-1.44H46.28l0-1.54h3.33V11.45a1,1,0,0,1,.26-.4.86.86,0,0,1,.53-.32,1.25,1.25,0,0,1,.36,0,.63.63,0,0,1,.33.31,20,20,0,0,1,.36,4.42A13.62,13.62,0,0,0,51.48,17a11.16,11.16,0,0,1,1.42-.09h1.15a6.35,6.35,0,0,0,.78,0l-.07,1.6-3.24-.09L51.63,26a1.68,1.68,0,0,1-.69.18C50.2,26.17,49.83,25.34,49.83,23.7Z" transform="translate(-0.7 -0.84)"/>
    <path d="M60.36,34.2q-.47,1-1.11,1a.5.5,0,0,1-.46-.28.83.83,0,0,1,0-.66q.49-2.06,1.41-4.7c.61-1.77,1-2.95,1.23-3.56A27.46,27.46,0,0,1,59,23c-2.28-3.2-3.42-4.95-3.42-5.27a.08.08,0,0,1,0,0l.85-.84A39.6,39.6,0,0,1,61,22.3c.47.65.85,1.2,1.13,1.65.31-.63.56-1.16.74-1.62s.32-.81.43-1.08.26-.64.45-1.1c.51-1.23,1.2-2.79,2.09-4.69a1,1,0,0,1,.42-.08,1,1,0,0,1,.8.28.41.41,0,0,1,.09.26.86.86,0,0,1,0,.28Z" transform="translate(-0.7 -0.84)"/>
    <path d="M68.55,17.22c0-.8-.06-1.52-.09-2.14s0-1.1,0-1.4A18.4,18.4,0,0,0,68,11.45l.39-.52a.63.63,0,0,1,.54-.24q.78,0,1.2,6.55.22,3.8.22,7.59c0,.68-.47,1-1.42,1l-.18,0c0-.77,0-1.75-.06-2.95s-.08-2.24-.1-3.13S68.58,18,68.55,17.22Z" transform="translate(-0.7 -0.84)"/>
    <path d="M76.25,24.28a16.13,16.13,0,0,0,5.89-1.78.54.54,0,0,1,.4.17.56.56,0,0,1,.15.39,5.91,5.91,0,0,1-3.4,2.35,8.17,8.17,0,0,1-4.68.29,3.79,3.79,0,0,1-3-2.78c0-.28,0-.65,0-1.13a6.4,6.4,0,0,1,.37-1.87,6.22,6.22,0,0,1,1.25-2.21,6.53,6.53,0,0,1,2.09-1.65,5.63,5.63,0,0,1,2.55-.6,6.11,6.11,0,0,1,2.89.89,4.22,4.22,0,0,1,1.2,1,1.69,1.69,0,0,1,.44,1.08c0,.11,0,.21,0,.32A1.68,1.68,0,0,1,81,20.42a5,5,0,0,1-1.29.15l-3.2-.13a3.83,3.83,0,0,0-2.44.68,2,2,0,0,0-.69,1.14A2.63,2.63,0,0,0,76.25,24.28Zm4-6.86a3.35,3.35,0,0,0-1-.51,3,3,0,0,0-.88-.16,5,5,0,0,0-1.16.23,9.63,9.63,0,0,0-1.42.53c-1,.47-1.53,1-1.53,1.48,1.18.11,2.07.16,2.66.16a8.69,8.69,0,0,0,3.33-.42c.36-.15.54-.34.54-.56A1,1,0,0,0,80.22,17.42Z" transform="translate(-0.7 -0.84)"/>
    <path d="M90.44,35.33l-.31,0a12,12,0,0,0-1.42.09h-.84a3.69,3.69,0,0,1-2.09-.51.89.89,0,0,1-.4-.8l5.11-.24a2.2,2.2,0,0,0,2.35-2.53V30.09L93,23c0-.26,0-.46,0-.63q-3.6,3.36-6.93,3.36l-.58,0c-1,0-1.48-.43-1.48-1.31a6,6,0,0,1,.6-2.25A11.24,11.24,0,0,1,86,19.72a12.07,12.07,0,0,1,2-2.06,5.33,5.33,0,0,1,3.31-1.4,3.54,3.54,0,0,1,3.07,2q.35,5.28.35,7.5c0,1.48,0,2.7-.07,3.64a16.46,16.46,0,0,1-.3,2.6,6.2,6.2,0,0,1-.61,1.87,2.57,2.57,0,0,1-.88,1A4.89,4.89,0,0,1,90.44,35.33Zm1.33-17.45a2.39,2.39,0,0,0-.74-.09,2.89,2.89,0,0,0-1.23.4,7.05,7.05,0,0,0-1.45,1,10.85,10.85,0,0,0-1.28,1.41,5.67,5.67,0,0,0-1.47,3,.68.68,0,0,0,.2.53.75.75,0,0,0,.39.09,4.73,4.73,0,0,0,.68-.08,5.74,5.74,0,0,0,1.21-.4A10.5,10.5,0,0,0,89.66,23a9.56,9.56,0,0,0,1.49-1.13,3.93,3.93,0,0,0,1.56-2.78A1.29,1.29,0,0,0,91.77,17.88Z" transform="translate(-0.7 -0.84)"/>
    <path d="M95.64,22.88q0-.36-.06-1c0-.42-.07-.88-.1-1.39s0-1,0-1.53a6.93,6.93,0,0,1,.13-1.42q.29-1.44,1.2-1.44a1.63,1.63,0,0,1,.83.44,1,1,0,0,1,.21.66,2.83,2.83,0,0,1-.2,1,9.92,9.92,0,0,0-.73,3.49A8.51,8.51,0,0,0,97,22.75c.23,1,1,1.48,2.44,1.48a5.7,5.7,0,0,0,2.06-.37A5.26,5.26,0,0,0,104,22.24a9,9,0,0,0,.2-1.79c0-.51,0-1-.05-1.37s-.08-.84-.13-1.32-.09-1-.11-1.59a1.56,1.56,0,0,1,.57-.13.87.87,0,0,1,.58.29,2.34,2.34,0,0,1,.51,1.09,10.28,10.28,0,0,1,.28,1.87c0,.72.07,1.47.07,2.24s0,1.51,0,2.23a16.69,16.69,0,0,0,.08,1.85.75.75,0,0,1-.51.24c-.59,0-1-.59-1.31-1.77a5.69,5.69,0,0,1-1,.6,9.82,9.82,0,0,1-3.47,1.06,7,7,0,0,1-.84.05,4.91,4.91,0,0,1-1.17-.18,2.87,2.87,0,0,1-1.32-.82A3.26,3.26,0,0,1,95.64,22.88Z" transform="translate(-0.7 -0.84)"/>
    <path d="M112,34.2c-.31.7-.69,1-1.11,1a.5.5,0,0,1-.46-.28.79.79,0,0,1,0-.66q.5-2.06,1.41-4.7L113,26.05A27.46,27.46,0,0,1,110.6,23c-2.28-3.2-3.42-4.95-3.42-5.27a.08.08,0,0,1,0,0l.85-.84a39.6,39.6,0,0,1,4.57,5.5c.47.65.85,1.2,1.13,1.65.31-.63.56-1.16.74-1.62s.32-.81.43-1.08.26-.64.45-1.1c.51-1.23,1.2-2.79,2.09-4.69a1,1,0,0,1,.42-.08,1,1,0,0,1,.8.28.41.41,0,0,1,.09.26,1.26,1.26,0,0,1,0,.28Z" transform="translate(-0.7 -0.84)"/>
  </g>
</svg>
