<?xml version="1.0" encoding="utf-8"?>
<!-- Generator: Adobe Illustrator 25.4.1, SVG Export Plug-In . SVG Version: 6.00 Build 0)  -->
<svg version="1.1" id="Laag_1" xmlns="http://www.w3.org/2000/svg" xmlns:xlink="http://www.w3.org/1999/xlink" x="0px" y="0px"
	 viewBox="0 0 28 49.3" style="enable-background:new 0 0 28 49.3;" xml:space="preserve">
<g>
	<path d="M5.9,7.8c0.4,0,0.7,0,1.1,0C6.9,8.5,6.9,8.4,7.5,8.4c0.7,0,1.4,0.1,2.1,0.2c0.3,0.1,0.5,0.3,0.7,0.6
		c0.2,0.2,0.1,0.3-0.2,0.3c-0.2,0-0.4,0-0.6-0.1C8.7,9,7.8,8.9,6.8,9.2C6.4,9.4,5.9,9.5,5.5,9.7C5.3,9.7,5.2,9.6,5,9.6
		c0.1-0.1,0.1-0.3,0.2-0.4C5.6,9,6,8.8,6.5,8.6c-1.1-0.2-2.9,0.9-2.8,2.1c0.2-0.1,0.3-0.3,0.5-0.3c0.2-0.1,0.3-0.1,0.5-0.1
		c0,0.1,0,0.3-0.1,0.4c0,0.1,0,0.3,0,0.3C4.8,11,4.9,11,5,11c0.5-0.3,1-0.5,1.4-0.8c0.5-0.4,1-0.5,1.6-0.5c0.5,0,0.8,0.2,1.1,0.6
		c0.2,0.3,0.1,0.5-0.2,0.6C8.7,11,8.5,11,8.4,11.1c-0.3,0.1-0.6,0.2-0.6,0.5c0,0.1-0.1,0.2-0.2,0.3c-0.5,0.5-1,1.1-1.5,1.6
		c0,0-0.1,0.1-0.1,0.1c0,0.1,0,0.2,0,0.3c0.1,0,0.2,0,0.3-0.1c0.3-0.4,0.7-0.7,1-1.1c0.1-0.1,0.2-0.2,0.3-0.3c0,0,0.1,0,0.1,0.1
		c0,0.1-0.1,0.3-0.1,0.4c-0.3,0.8-0.7,1.6-1.4,2.2c-0.1,0.1-0.1,0.3-0.1,0.4c0.1,0,0.3,0,0.4-0.1c0.7-0.5,1.1-1.2,1.4-2
		c0-0.1,0.1-0.2,0.2-0.4c0,0,0.1,0,0.1,0c0.1,0.2,0.1,0.4,0.2,0.6c0.1,0.7,0,1.4-0.3,2c-0.4,1-0.9,2.1-1.4,3
		c-0.2,0.4-0.4,0.7-0.2,1.1c0.2,0.6,0,0.8-0.5,1.1c-0.3-0.3-0.7-0.6-1-0.8c-0.4-0.2-0.7-0.5-1.1-0.7c-0.9-0.4-1.7,0.4-1.8,1.2
		c-0.2,1,0.1,1.9,0.6,2.8c0.5,0.8,1,1.7,1.5,2.6c0.7,1.1,1.1,1.2,2.2,0.4c0.3-0.2,0.5-0.4,0.8-0.6c0.3,0.3,0.1,0.6,0,0.8
		c-0.2,0.3-0.4,0.6-0.6,0.8C6.1,27.8,6,28,6.1,28.3c0.5,1.6,1,3.2,1.1,4.9c0,0.8,0.6,1.2,1.1,1.5c1.2,0.8,2.5,1.4,3.9,1.8
		c0.8,0.2,1.6,0.6,2.4,0.8c0.7,0.2,1.3,0.3,2,0.5c0.1,0,0.2,0.1,0.2,0.1c0,0,0,0.1,0,0.1c-0.2,0-0.4,0.2-0.5,0.1
		c-0.8-0.1-1.6-0.2-2.3-0.4c-2.2-0.6-4.3-1.3-6.1-2.6c-0.6-0.4-1.1-0.9-1.6-1.3c0,0.1-0.1,0.2-0.2,0.4C6.1,34.7,6,35.1,6,35.5
		c-0.1,0.6-0.7,1-1.2,0.7C4.9,36.1,5,36,5.1,35.8c0.3-0.5,0.5-1,0.5-1.6c0-0.5,0.1-0.9,0.6-1.2c0.1,0,0.2-0.2,0.2-0.3
		c-0.1-1.5-0.4-2.9-0.9-4.3c0-0.1-0.2-0.2-0.3-0.3c-0.2-0.1-0.6-0.2-0.7-0.4c-1.3-1.3-2.4-2.8-3-4.6c-0.3-0.9-0.4-1.8-0.2-2.7
		c0.1-0.4,0.3-0.8,0.5-1.1c0.3-0.3,0.2-0.6,0.2-1c-0.3-1.1-0.6-2.1-0.8-3.2c-0.2-1.1-0.3-2.2-0.5-3.3c0-0.2,0-0.4,0.1-0.6
		C1,10.7,1,10.2,1,9.6c0-0.3,0.1-0.6,0.3-0.8c0.7-0.5,0.9-1.2,1-1.9c0.1-0.6,0.4-1.1,0.8-1.4C4.1,4.6,5.1,4,6.3,3.8
		C6.9,3.6,7.5,3.4,8,3.1c1-0.6,2.1-1.1,3.2-1.3c0.5-0.1,1-0.2,1.5-0.5C13.4,1,14.1,0.9,14.8,1c0.8,0.1,1.6,0.1,2.4-0.1
		c0.8-0.1,1.5-0.1,2.2,0.2c0.9,0.4,1.4,1.2,1.4,2.1c0,0.7-0.1,1.4-0.2,2.2c0,0.2,0,0.4,0.1,0.5c0.9,0.5,1.3,1.3,1.7,2.1
		c0.4,1,0.6,2,0.7,3c0,0.3,0,0.6,0.1,0.9c0.1,0.3,0.2,0.6,0.4,0.8c1.1,0.9,1.3,2.1,1.2,3.4c-0.1,0.5-0.2,1-0.3,1.5
		c-0.3,0.9-0.1,1.7,0.3,2.5c0.2,0.4,0.5,0.9,0.7,1.3c0.2,0.6,0.3,1.3,0.2,2c-0.3,3-1.2,5.9-2,8.8c-0.4,1.4-0.8,2.9-1.2,4.3
		c-0.1,0.3-0.1,0.7-0.6,0.8c0-0.4,0-0.7,0-1c0.3-2.3,1.1-4.5,1.8-6.8c0.6-1.9,1-3.8,1.1-5.8c0-0.9,0.1-1.8-0.2-2.6
		c-0.1-0.4-0.3-0.9-0.6-1.2c-0.6-0.8-0.6-1.6-0.3-2.5c0.1-0.4,0.3-0.8,0.4-1.2c0.2-0.7-0.1-1.2-0.8-1.4c-1.2-0.4-2.1,0-3,0.7
		c-0.4,0.3-0.5,0.3-0.7-0.2c0-0.2-0.1-0.3-0.1-0.5c0-0.4-0.1-0.9,0.5-1.1c0.3-0.1,0.5-0.4,0.8-0.5c0.5-0.4,1-0.8,1.7-0.7
		c0-0.1,0-0.1,0-0.2c-0.3-1.3-0.6-2.6-1-3.9c-0.3-0.9-1.2-1.5-2.1-1.5c-0.1,0-0.2,0-0.3,0.1c0,0.1,0.1,0.2,0.1,0.3
		c0.1,0.4,0,0.6-0.4,0.7c-0.2,0.1-0.5,0.2-0.6,0.4c-0.5,0.6-0.7,0.6-1.2,0.1c-0.4-0.4-0.9-0.4-1.4-0.3c-0.2-0.7-0.5-1-1.1-0.9
		c0,0.1,0,0.1,0.1,0.2C15,7.7,15,7.8,14.4,8c-0.7,0.3-1.2,0.1-1.7-0.3c-0.5-0.4-1-0.8-1.7-0.9c-0.3,0-0.7,0-1-0.1
		c1.2-0.5,2.3-0.1,3.4,0.3c0.1-0.4-0.1-0.6-1.1-0.8c1.1-0.5,2.2,0,3.3,0.1c-0.5-0.4-1.1-0.6-1.7-0.7c1-0.4,2,0,2.9-0.1
		C16.5,5.2,16,5,15.6,4.7c0.3,0,0.6,0,0.8,0.1c0.5,0.2,0.9,0.5,1.4,0.7c0.2,0.1,0.4,0.1,0.7,0.1c-0.3-0.7-1-0.9-1.6-1.1
		c0.6-0.3,1.5,0,1.9,0.5C18.9,5,19,5.1,19.1,5.1c0-0.2,0.1-0.4,0-0.5C19,4.4,18.7,4.3,18.5,4c0.2,0,0.5,0,0.7,0.1
		c0.2,0.1,0.4,0.2,0.7,0.4C20,4,19.7,3.6,19.3,3.4c-0.1-0.1-0.3-0.2-0.5-0.2c-0.9,0-1.8,0-2.7,0.1c-0.1,0-0.2,0.1-0.3,0.2
		c0.7,0.3,1.5,0.3,2.3,0.4C17.8,4,17.6,4,17.4,4c-1,0-2.1,0-3.1,0.1c-0.5,0-1,0-1.5,0c-0.1,0-0.2,0.1-0.4,0.1c0,0,0,0.1,0,0.1
		c0.7,0.1,1.3,0.3,2,0.4c0,0,0,0.1,0,0.1c-0.5,0-1-0.1-1.5-0.1c-0.5,0-1-0.1-1.5,0.3c0.8,0.3,1.6,0.1,2.4,0.1
		c-1.1,0.6-2.3,0.6-3.5,0.6C9.7,5.9,9.1,6,8.4,6C8.3,6.1,8.2,6.1,8,6.2c0,0,0,0.1,0,0.1c0.4,0,0.9,0.1,1.3,0.1c0,0.1,0,0.1,0,0.2
		C8.8,6.7,8.2,6.7,7.6,6.9C7,7.1,6.4,7.3,5.9,7.7C5.9,7.7,5.9,7.8,5.9,7.8z M7.4,11.2c-0.2,0-0.5,0.2-0.5,0.1
		c-0.4-0.3-0.6,0-0.9,0.1c-0.3,0.1-0.6,0.3-0.8,0.2c-0.5-0.2-0.9,0.1-1.3,0.3c-0.1,0.1-0.1,0.2-0.2,0.3c0.1,0,0.3,0.1,0.4,0
		c0.2,0,0.4-0.3,0.6,0c0,0.1-0.2,0.4-0.3,0.5C4.2,13,4,13.1,3.9,13.2c-0.2,0.1-0.3,0.3-0.4,0.5c-0.1,0.1,0,0.2,0,0.3
		c0.1,0,0.2,0,0.3,0c0.1,0,0.1-0.1,0.2-0.1c0.3-0.2,0.6-0.5,1.1-0.4c0.1,0,0.2-0.1,0.3-0.1c0.7-0.6,1.3-1.3,2-1.9
		C7.3,11.4,7.3,11.3,7.4,11.2z M7.2,15.8c0,0-0.1,0-0.1-0.1c-0.4,0.4-0.8,0.7-1.1,1.1c-0.1,0.2-0.1,0.5-0.2,0.7
		c0,0.1,0.1,0.2,0.1,0.3c0.1-0.1,0.2-0.1,0.3-0.2c0.3-0.5,0.7-1,1-1.5C7.2,16.1,7.2,16,7.2,15.8z"/>
	<path d="M20.3,39.5c0.4-0.3,0.7-0.6,1.3-0.6c0.1,0,0.2-0.1,0.3-0.2c0.5-0.6,1-1.2,1.6-1.7c0.4-0.4,0.6-0.3,0.8,0.2
		c0.4,1.2,0.7,2.4,0.4,3.7c-0.1,0.3-0.1,0.6-0.1,0.9c-0.1,0.4-0.4,0.4-0.7,0.2c-0.4-0.3-0.7-0.6-1.1-0.9c-0.2-0.1-0.3-0.1-0.4,0.1
		c-0.3,0.6-1,0.7-1.5,0.9c0,0-0.1,0-0.1,0c0,0-0.1-0.1-0.1-0.1c0.1-0.2,0.1-0.4,0.2-0.5c-0.1-0.1-0.1-0.1-0.2-0.2
		c-0.1,0.1-0.1,0.3-0.2,0.4c-0.4,0.5-0.8,1-1.3,1.5c-0.5,0.5-0.8,0.4-1.1-0.2c-0.6-1.2-1.2-2.3-1.8-3.5c-0.2-0.5-0.2-0.6,0.2-0.7
		c0.3-0.1,0.7-0.2,1-0.2C18.4,38.6,19.4,38.9,20.3,39.5z"/>
	<path d="M17.1,16.1c-0.1,0.1-0.3,0.4-0.4,0.4c-0.8,0-1.3,0.4-1.9,0.8c-0.7,0.5-1.4,0.7-2.2,0.7c-0.6,0-1.1,0.1-1.7,0.3
		c-0.3,0.1-0.5,0.4-0.8,0.6c-0.1,0.1-0.2,0.1-0.2,0.2c-0.1-0.1-0.2-0.2-0.1-0.3c0.1-1,0.6-1.8,1.7-2.2c0.4-0.1,0.8-0.2,1.2-0.3
		c0.8-0.1,1.4-0.5,2.1-1c0.3-0.2,0.6-0.4,1-0.6c0.4-0.2,0.8,0,0.9,0.4C16.9,15.4,17,15.7,17.1,16.1z"/>
	<path d="M3,23.2c-0.1-0.1-0.2-0.2-0.2-0.3c-0.1-0.6-0.3-1.2-0.3-1.9c0-0.7,0.5-1,1.1-0.7c0.9,0.4,1.5,1.1,2.1,1.9
		c0.1,0.1,0.1,0.3,0,0.4c-0.1,0.1-0.2,0.1-0.4,0.1c0,0-0.1,0-0.1,0c-0.4-0.2-0.7-0.2-1,0.1c-0.3,0.4-0.2,0.8,0,1.1
		c0.2,0.3,0.3,0.6,0.5,0.8c0.1,0.1,0.4,0.1,0.6,0.1c-0.5-0.5-0.7-1-0.5-1.6c0-0.1,0.2-0.2,0.3-0.3c0,0,0.1,0,0.1,0.1
		c0,0.1-0.1,0.3-0.1,0.4c0,0.4,0.1,0.7,0.4,0.9c0.3,0.2,0.3,0.5,0.1,0.8c-0.2,0.3-0.5,0.4-0.8,0.2c-0.3-0.2-0.5-0.5-0.7-0.8
		c-0.5-0.8-0.7-1.7-0.6-2.7c0-0.1,0-0.3,0-0.4c0-0.1-0.1-0.2-0.2-0.3c-0.1,0.1-0.3,0.2-0.3,0.3C3,22,3,22.4,3,22.9
		C3,23,3.1,23.1,3,23.2C3,23.2,3,23.2,3,23.2z"/>
	<path d="M20.2,20.2c-0.4,0.6,0,1.1,0,1.7c-0.5-0.2-0.6-0.6-0.6-0.9c-0.1-1-0.1-1.9,0.4-2.8c0.4-0.7,2-1.5,2.9-0.9
		c0.1,0,0.1,0.1,0.3,0.2c-0.4,0-0.7,0-1.1,0c0.3,0.3,0.5,0.5,0.7,0.7c0,0-0.1,0.1-0.1,0.1c-0.2-0.1-0.4-0.2-0.5-0.3
		c-0.5-0.3-0.8-0.4-1.2,0c0.6,0.1,0.7,0.6,0.7,1.1c-0.1,0.5-0.4,0.7-0.9,0.8c0.5,0.4,1,0.2,1.7-0.7c0.1,0.3-0.1,0.6-0.4,0.9
		C21.5,20.7,20.8,20.7,20.2,20.2z"/>
	<path d="M14.8,26.8c-0.1,0.2-0.1,0.3-0.2,0.6c0.3,0,0.5,0,0.8,0c0.6,0,1.2,0.1,1.8,0.5c0.6,0.4,1.2,0.5,1.8,0.2
		c0.5-0.2,0.9-0.4,1.4,0c0.2,0.1,0.4,0,0.4-0.2c0-0.2,0-0.3,0.1-0.5c0.4,0.3,0.5,1.2,0.2,1.4c-0.1,0.1-0.3,0-0.4,0
		c-0.1,0-0.3-0.2-0.4-0.2c-0.6,0.1-1.1,0.3-1.6,0.3c-0.3,0-0.7,0-1.1-0.1c-0.8-0.3-1.6-0.6-2.4-0.9c-0.1,0-0.4,0-0.5,0.1
		c-0.1,0.1-0.1,0.2-0.2,0.3c-0.1,0.1-0.3,0.2-0.4,0.2c-0.1,0-0.2-0.3-0.2-0.4c0.1-0.4,0.3-0.8,0.5-1.1c0.1-0.1,0.3-0.1,0.4-0.2
		C14.8,26.7,14.8,26.8,14.8,26.8z"/>
	<path d="M15.7,34.6c0.3,0.3,0.6,0.5,0.9,0.8c0.7,0.5,1.4,0.9,2.3,0.8c0.7-0.1,1.2-0.5,1.5-1.1c0.1-0.1,0.2-0.3,0.3-0.4
		c0,0,0.1,0,0.1,0c0,0.2,0.1,0.3,0,0.5c-0.3,0.8-0.7,1.5-1.6,1.8c-1.4,0.4-3.3-0.6-3.7-2C15.6,34.8,15.6,34.7,15.7,34.6z"/>
	<path d="M16.1,24.7c-0.1,0.1-0.2,0.1-0.4,0.2c-1.4,0.4-2.5,1.2-3.4,2.4c-0.4,0.6-0.5,1.2-0.2,1.8c0.1,0.2,0.1,0.3,0,0.5
		c-0.4-0.3-0.6-0.7-0.6-1.1c0-0.5,0-1.1,0.1-1.6c0-0.4,0.3-0.7,0.7-0.9c0.8-0.4,1.7-0.9,2.5-1.3c0.4-0.2,0.8-0.2,1.2-0.1
		C16.1,24.6,16.1,24.6,16.1,24.7z"/>
	<path d="M22.7,42.9c0-0.1,0.1-0.2,0.2-0.3c0.1,0.1,0.2,0.1,0.2,0.2c0.3,0.8,0.6,1.5,0.9,2.3c0.3,1,0.7,2,1,3c0.1,0.3,0,0.4-0.3,0.5
		c-0.3,0.1-0.4-0.1-0.5-0.3c-0.5-1.8-1-3.5-1.5-5.3C22.7,43.1,22.7,43.1,22.7,42.9z"/>
	<path d="M13.1,35C13,35,13,35,13,34.9c-0.3-0.9-0.9-1.6-1.4-2.4c-1.1-1.8-1.5-3.7-1.2-5.8c0-0.2,0.1-0.4,0.2-0.5c0,0,0.1,0,0.1,0
		c0,0.2,0,0.4,0,0.6c-0.1,1.3,0,2.6,0.5,3.8c0.3,0.7,0.6,1.4,1.1,2c0.4,0.6,0.7,1.2,0.8,1.8C13.2,34.7,13.1,34.8,13.1,35z"/>
	<path d="M7.5,28.6c0.5,0,0.5,0.3,0.6,0.5c0.6,2,1.7,3.6,2.8,5.4c0.2,0.3,0.4,0.6,0.6,0.8c0,0,0,0.1-0.1,0.1
		c-0.1-0.1-0.3-0.1-0.4-0.2c-0.8-0.7-1.4-1.6-1.9-2.6c-0.5-0.9-0.9-1.9-1.3-2.8C7.6,29.4,7.6,29,7.5,28.6z"/>
	<path d="M16.1,29.7c0.2,0,0.4,0,0.5,0.1c1.1,0.5,2.2,0.6,3.4,0.1c0.1,0,0.3,0,0.3,0c0,0.1,0,0.2,0,0.3c-0.5,0.9-1.7,1.2-2.7,0.8
		C16.8,30.6,16.3,30.2,16.1,29.7z"/>
	<path d="M20.3,42.7c0,0.1,0.1,0.2,0.1,0.4c0,1.1-0.1,2.2-0.1,3.3c0,0.3-0.2,0.5-0.5,0.6c-0.3,0.1-0.6-0.1-0.6-0.4
		c0.3-1.2,0.5-2.5,0.8-3.7c0,0,0.1-0.1,0.1-0.1C20.2,42.7,20.3,42.7,20.3,42.7z"/>
	<path d="M21.6,30c0.1-0.4,0.1-0.8,0.1-1.2c0-0.6,0.1-1.3,0-1.9c0-0.3-0.2-0.5-0.3-0.8c-0.1-0.2-0.1-0.4-0.1-0.5
		c0.7,0,1.5,1,1.3,1.7c-0.2,0.9-0.6,1.8-0.9,2.7C21.8,30,21.7,30,21.6,30z"/>
	<path d="M13.2,12.7c0.2-0.1,0.4-0.3,0.6-0.4c0.9-0.5,1.9-0.7,3-0.6c0.4,0,0.9-0.1,1.3-0.3c0.6-0.2,1.3-0.5,1.9-0.7
		c0.1,0,0.2,0,0.3,0c0,0.1,0,0.1,0,0.1c-1,0.4-2,0.9-3,1.2c-0.5,0.2-1,0.1-1.5,0.1c-0.8,0-1.6,0.2-2.3,0.6c-0.1,0-0.1,0.1-0.2,0.1
		C13.3,12.7,13.3,12.7,13.2,12.7z"/>
	<path d="M11.8,20.2c1.3,0.9,2.2,0.4,3.1-0.3c0.2-0.1,0.3-0.3,0.4-0.4c0.4-0.4,0.5-0.4,0.8,0.1c0.1,0.1,0.2,0.2,0.3,0.3
		c0.1,0.1,0.2,0.2,0.2,0.2c0,0.1-0.1,0.2-0.2,0.2c-0.1,0-0.3,0-0.3-0.1c-0.4-0.4-0.4-0.4-0.9,0c-0.7,0.5-1.4,0.9-2.3,0.8
		C12.4,21,11.9,20.7,11.8,20.2z"/>
	<path d="M20.8,11.7c-0.2,0.1-0.3,0.3-0.5,0.4c-0.6,0.3-1.1,0.6-1.7,0.9c-0.3,0.1-0.8,0.3-1.1,0.2c-1.2-0.1-2.4,0-3.5,0.6
		c-0.3,0.2-0.7,0.3-1.1,0.5c0,0,0-0.1-0.1-0.1c0.2-0.1,0.4-0.3,0.7-0.4c1.2-0.7,2.5-1.1,3.8-0.9c0.8,0.1,1.5-0.3,2.2-0.6
		c0.4-0.2,0.8-0.4,1.1-0.6C20.8,11.6,20.8,11.7,20.8,11.7z"/>
	<path d="M20.1,32.6c-0.2,0-0.3-0.1-0.4-0.1c-0.7-0.2-1.4,0-2.1,0.1c-0.2,0-0.4,0.1-0.5,0c-0.1,0-0.2-0.1-0.3-0.2
		c0.1-0.1,0.2-0.2,0.3-0.3c1-0.3,2-0.6,3-0.1c0.1,0.1,0.2,0.2,0.3,0.3C20.2,32.5,20.1,32.6,20.1,32.6z"/>
	<path d="M7.5,7.6C8.2,7.3,8.9,7,9.7,7.1c0.5,0,0.9,0.4,1.2,1c-0.3,0-0.5,0.1-0.7,0.1C9.3,7.8,8.5,7.5,7.5,7.6z"/>
	<path d="M13.9,11.3c0.1-0.1,0.2-0.2,0.3-0.3c0.6-0.4,1.3-0.6,2-0.5c0.7,0,1.3-0.1,2-0.4c0.3-0.1,0.7-0.2,1-0.3c0.1,0,0.3,0,0.4,0.1
		c-0.4,0.1-0.9,0.2-1.3,0.4c-0.6,0.3-1.2,0.5-1.9,0.5c-0.3,0-0.7,0-1,0.1C14.9,11,14.4,11.1,13.9,11.3z"/>
	<path d="M25.3,40.5c0.1,0,0.2,0.1,0.3,0.1c0.4,0.3,0.9,0.6,1.3,0.9c0.3,0.2,0.2,0.7-0.1,0.8c-0.1,0-0.2,0-0.2,0
		c-0.5-0.5-0.9-0.9-1.3-1.4c-0.1-0.1-0.1-0.2-0.1-0.3C25.2,40.6,25.3,40.6,25.3,40.5z"/>
	<path d="M19.3,25.7c0.2-0.1,0.4-0.2,0.7-0.3c0.6-0.2,1-0.9,1-1.6c0-0.1,0-0.3-0.1-0.4c0.4,0.2,0.6,1,0.4,1.6
		C21,25.8,20.4,26,19.3,25.7z"/>
	<path d="M17.6,15.3c-0.1-0.2-0.2-0.3-0.2-0.4c-0.3-0.7-0.9-1-1.6-0.8c-0.4,0.1-0.8,0.3-1.2,0.5c-0.2,0.1-0.3,0.1-0.6,0.3
		c0.7-0.7,1.6-1.1,2.4-1.2c0.8,0,1.5,0.7,1.3,1.4C17.7,15.2,17.7,15.2,17.6,15.3z"/>
	<path d="M17.6,20.9c-0.2-1-0.5-2-0.7-3.1C17.7,18.1,18.1,20.2,17.6,20.9z"/>
	<path d="M15.8,18.5c-0.7,0.4-1.3,0.7-1.9,0.9c-0.5,0.2-1.1,0.3-1.7,0c0,0,0-0.1,0-0.1c0.2,0,0.4,0,0.6,0c0.6,0,1-0.2,1.5-0.5
		c0.2-0.1,0.5-0.3,0.8-0.4C15.3,18.5,15.5,18.5,15.8,18.5z"/>
	<path d="M22.9,20.2c0,0.6-0.3,1-0.8,1.1c-0.6,0.2-1,0.1-1.3-0.3C21.6,21,22.4,21,22.9,20.2z"/>
	<path d="M18.5,23.8c-0.3,0.1-0.6,0.1-0.9,0.3c-0.2,0.1-0.3,0.4-0.5,0.7c-0.2,0-0.2-0.2-0.2-0.5c0-0.3,0.1-0.7,0.4-0.7
		c0.4-0.1,0.8,0,1.2,0C18.5,23.7,18.5,23.7,18.5,23.8z"/>
	<path d="M13.2,21.5c0.9,0,1.7-0.2,2.4-0.9c0.1,0.3,0.1,0.4-0.2,0.6C14.9,21.7,14,21.9,13.2,21.5z"/>
	<path d="M17.6,25.3c0-0.2,0-0.4,0.2-0.5c0.1-0.1,0.4-0.1,0.6,0c0.3,0.1,0.5,0.3,0.8,0.5c0,0,0,0.1-0.1,0.1
		C18.6,25.3,18.2,25.3,17.6,25.3z"/>
	<path d="M8.8,21.3c0.1,0,0.2-0.1,0.3-0.1c0.5-0.1,1-0.1,1.5-0.1c0.1,0,0.2,0.1,0.2,0.1c-0.1,0.1-0.1,0.2-0.2,0.2
		c-0.6,0.2-1.2,0.2-1.8,0C8.8,21.3,8.8,21.3,8.8,21.3z"/>
	<path d="M8.9,19.9c0.7,0.2,1.2,0.4,1.8,0.6c-0.6,0.2-1.2,0-1.7-0.3C8.9,20.2,8.9,20,8.9,19.9z"/>
	<path d="M9.4,22.2c0.5-0.2,1-0.4,1.4-0.5c0,0.1,0.1,0.1,0.1,0.2c-0.4,0.2-0.7,0.4-1.1,0.5C9.7,22.4,9.6,22.3,9.4,22.2z"/>
	<path d="M18.7,16.2c0.1,0.3,0.2,0.6,0.3,0.9C18.6,17,18.5,16.7,18.7,16.2z"/>
</g>
</svg>
